<svg width="14" height="11" viewBox="0 0 14 11" fill="none" xmlns="http://www.w3.org/2000/svg">
<path d="M12.8628 4.92951L8.14783 0.208764C8.01337 0.0750542 7.83145 0 7.64183 0C7.4522 0 7.27029 0.0750542 7.13583 0.208764L6.70688 0.637715C6.64021 0.703988 6.58738 0.782843 6.55145 0.869708C6.51552 0.956572 6.49721 1.04971 6.49758 1.14371C6.49695 1.33526 6.5722 1.51925 6.70688 1.65546L9.46113 4.41547H0.706177C0.613054 4.41438 0.520655 4.43194 0.434422 4.46712C0.34819 4.50229 0.269868 4.55437 0.204069 4.62027C0.138269 4.68618 0.0863234 4.76458 0.0512899 4.85087C0.0162563 4.93716 -0.00115632 5.02959 7.73778e-05 5.12271V5.72876C-0.00270948 5.91955 0.0698803 6.10374 0.202084 6.24132C0.334287 6.37891 0.51543 6.45879 0.706177 6.46361H9.48643L6.70228 9.23511C6.636 9.30095 6.58341 9.37925 6.54752 9.4655C6.51163 9.55175 6.49315 9.64425 6.49315 9.73766C6.49315 9.83108 6.51163 9.92358 6.54752 10.0098C6.58341 10.0961 6.636 10.1744 6.70228 10.2402L7.13123 10.668C7.26569 10.8017 7.4476 10.8768 7.63723 10.8768C7.82685 10.8768 8.00877 10.8017 8.14323 10.668L12.8582 5.95301C12.9921 5.81797 13.0673 5.63548 13.0673 5.44529C13.0673 5.2551 12.9921 5.07261 12.8582 4.93756L12.8628 4.92951Z" fill="white"/>
</svg>
