<svg width="31" height="32" viewBox="0 0 31 32" fill="none" xmlns="http://www.w3.org/2000/svg">
<circle cx="14.4567" cy="16.5456" r="14.4567" fill="white"/>
<path d="M9.6351 16.5345C8.89502 16.9955 7.93479 16.8854 7.31824 16.2689L6.70689 15.6575C5.33629 14.2869 5.62899 11.9912 7.29964 11.0083L16.4038 5.65222C18.7014 4.30055 21.6221 4.67293 23.5071 6.55784C25.392 8.44276 25.7644 11.3635 24.4127 13.6611L19.0566 22.7653C18.0737 24.4359 15.778 24.7286 14.4074 23.358L13.796 22.7467C13.1795 22.1301 13.0694 21.1699 13.5304 20.4298C13.9915 19.6897 13.8814 18.7295 13.2648 18.1129L11.952 16.8001C11.3354 16.1835 10.3752 16.0734 9.6351 16.5345ZM19.5285 10.5357C19.462 10.4692 19.3583 10.4572 19.2783 10.5068L16.088 12.486C15.5011 12.8501 15.4068 13.666 15.8952 14.1543C16.3818 14.641 17.1944 14.5493 17.5604 13.9664L19.5569 10.7869C19.6071 10.7068 19.5954 10.6026 19.5285 10.5357Z" fill="#251069"/>
</svg>
